<mxfile host="Electron" modified="2024-01-17T04:14:59.968Z" agent="Mozilla/5.0 (Windows NT 10.0; Win64; x64) AppleWebKit/537.36 (KHTML, like Gecko) draw.io/22.1.2 Chrome/114.0.5735.289 Electron/25.9.4 Safari/537.36" etag="EvsjZIhdsTzr0VO6Ln5O" version="22.1.2" type="device">
  <diagram name="Page-1" id="SvRcaoyWZs0SxURBqrnx">
    <mxGraphModel dx="1036" dy="654" grid="0" gridSize="10" guides="1" tooltips="1" connect="1" arrows="1" fold="1" page="1" pageScale="1" pageWidth="850" pageHeight="1100" math="0" shadow="0">
      <root>
        <mxCell id="0" />
        <mxCell id="1" parent="0" />
        <mxCell id="hy3aHUQP6oGOvIWSq6Fn-1" value="User" style="rounded=0;whiteSpace=wrap;html=1;" parent="1" vertex="1">
          <mxGeometry x="520" y="244" width="120" height="60" as="geometry" />
        </mxCell>
        <mxCell id="hy3aHUQP6oGOvIWSq6Fn-4" value="Bus" style="rounded=0;whiteSpace=wrap;html=1;" parent="1" vertex="1">
          <mxGeometry x="473" y="715" width="120" height="60" as="geometry" />
        </mxCell>
        <mxCell id="hy3aHUQP6oGOvIWSq6Fn-7" value="id_user" style="ellipse;whiteSpace=wrap;html=1;" parent="1" vertex="1">
          <mxGeometry x="593" y="105" width="98" height="48" as="geometry" />
        </mxCell>
        <mxCell id="hy3aHUQP6oGOvIWSq6Fn-8" value="nama" style="ellipse;whiteSpace=wrap;html=1;" parent="1" vertex="1">
          <mxGeometry x="445" y="117" width="98" height="48" as="geometry" />
        </mxCell>
        <mxCell id="hy3aHUQP6oGOvIWSq6Fn-9" value="email" style="ellipse;whiteSpace=wrap;html=1;" parent="1" vertex="1">
          <mxGeometry x="280" y="167" width="98" height="48" as="geometry" />
        </mxCell>
        <mxCell id="hy3aHUQP6oGOvIWSq6Fn-12" value="password" style="ellipse;whiteSpace=wrap;html=1;" parent="1" vertex="1">
          <mxGeometry x="729" y="165" width="98" height="48" as="geometry" />
        </mxCell>
        <mxCell id="hy3aHUQP6oGOvIWSq6Fn-13" value="jenis_bus" style="ellipse;whiteSpace=wrap;html=1;" parent="1" vertex="1">
          <mxGeometry x="685" y="721" width="98" height="48" as="geometry" />
        </mxCell>
        <mxCell id="hy3aHUQP6oGOvIWSq6Fn-14" value="nomor_bus" style="ellipse;whiteSpace=wrap;html=1;" parent="1" vertex="1">
          <mxGeometry x="288" y="719" width="98" height="48" as="geometry" />
        </mxCell>
        <mxCell id="hy3aHUQP6oGOvIWSq6Fn-15" value="id_bus" style="ellipse;whiteSpace=wrap;html=1;" parent="1" vertex="1">
          <mxGeometry x="484" y="807" width="98" height="48" as="geometry" />
        </mxCell>
        <mxCell id="hy3aHUQP6oGOvIWSq6Fn-16" value="tujuan" style="ellipse;whiteSpace=wrap;html=1;" parent="1" vertex="1">
          <mxGeometry x="242" y="288" width="114" height="49" as="geometry" />
        </mxCell>
        <mxCell id="hy3aHUQP6oGOvIWSq6Fn-17" value="asal" style="ellipse;whiteSpace=wrap;html=1;" parent="1" vertex="1">
          <mxGeometry x="366" y="330" width="98" height="48" as="geometry" />
        </mxCell>
        <mxCell id="hy3aHUQP6oGOvIWSq6Fn-18" value="id_tiket" style="ellipse;whiteSpace=wrap;html=1;" parent="1" vertex="1">
          <mxGeometry x="118" y="315" width="98" height="48" as="geometry" />
        </mxCell>
        <mxCell id="hy3aHUQP6oGOvIWSq6Fn-19" value="" style="endArrow=classic;html=1;rounded=0;entryX=0.5;entryY=1;entryDx=0;entryDy=0;exitX=0.5;exitY=0;exitDx=0;exitDy=0;" parent="1" source="hy3aHUQP6oGOvIWSq6Fn-1" target="hy3aHUQP6oGOvIWSq6Fn-7" edge="1">
          <mxGeometry width="50" height="50" relative="1" as="geometry">
            <mxPoint x="430" y="524" as="sourcePoint" />
            <mxPoint x="480" y="474" as="targetPoint" />
          </mxGeometry>
        </mxCell>
        <mxCell id="hy3aHUQP6oGOvIWSq6Fn-20" value="" style="endArrow=classic;html=1;rounded=0;entryX=0.5;entryY=1;entryDx=0;entryDy=0;exitX=0.5;exitY=0;exitDx=0;exitDy=0;" parent="1" source="hy3aHUQP6oGOvIWSq6Fn-1" target="hy3aHUQP6oGOvIWSq6Fn-8" edge="1">
          <mxGeometry width="50" height="50" relative="1" as="geometry">
            <mxPoint x="561" y="214" as="sourcePoint" />
            <mxPoint x="598" y="200" as="targetPoint" />
          </mxGeometry>
        </mxCell>
        <mxCell id="hy3aHUQP6oGOvIWSq6Fn-22" value="" style="endArrow=classic;html=1;rounded=0;entryX=0;entryY=0.5;entryDx=0;entryDy=0;exitX=0.5;exitY=0;exitDx=0;exitDy=0;" parent="1" source="hy3aHUQP6oGOvIWSq6Fn-1" target="hy3aHUQP6oGOvIWSq6Fn-12" edge="1">
          <mxGeometry width="50" height="50" relative="1" as="geometry">
            <mxPoint x="691" y="314" as="sourcePoint" />
            <mxPoint x="741" y="264" as="targetPoint" />
            <Array as="points" />
          </mxGeometry>
        </mxCell>
        <mxCell id="hy3aHUQP6oGOvIWSq6Fn-23" value="" style="endArrow=classic;html=1;rounded=0;entryX=1;entryY=0.5;entryDx=0;entryDy=0;exitX=0.5;exitY=0;exitDx=0;exitDy=0;" parent="1" source="hy3aHUQP6oGOvIWSq6Fn-1" target="hy3aHUQP6oGOvIWSq6Fn-9" edge="1">
          <mxGeometry width="50" height="50" relative="1" as="geometry">
            <mxPoint x="272" y="303" as="sourcePoint" />
            <mxPoint x="322" y="253" as="targetPoint" />
          </mxGeometry>
        </mxCell>
        <mxCell id="hy3aHUQP6oGOvIWSq6Fn-24" value="" style="endArrow=classic;html=1;rounded=0;entryX=0.5;entryY=1;entryDx=0;entryDy=0;exitX=0.5;exitY=0;exitDx=0;exitDy=0;" parent="1" source="hy3aHUQP6oGOvIWSq6Fn-42" target="hy3aHUQP6oGOvIWSq6Fn-18" edge="1">
          <mxGeometry width="50" height="50" relative="1" as="geometry">
            <mxPoint x="299.5" y="430" as="sourcePoint" />
            <mxPoint x="563" y="373" as="targetPoint" />
          </mxGeometry>
        </mxCell>
        <mxCell id="hy3aHUQP6oGOvIWSq6Fn-25" value="" style="endArrow=classic;html=1;rounded=0;entryX=0.5;entryY=1;entryDx=0;entryDy=0;exitX=0.5;exitY=0;exitDx=0;exitDy=0;" parent="1" source="hy3aHUQP6oGOvIWSq6Fn-42" target="hy3aHUQP6oGOvIWSq6Fn-17" edge="1">
          <mxGeometry width="50" height="50" relative="1" as="geometry">
            <mxPoint x="299.5" y="430" as="sourcePoint" />
            <mxPoint x="562" y="331" as="targetPoint" />
          </mxGeometry>
        </mxCell>
        <mxCell id="hy3aHUQP6oGOvIWSq6Fn-26" value="" style="endArrow=classic;html=1;rounded=0;exitX=0.5;exitY=0;exitDx=0;exitDy=0;" parent="1" source="hy3aHUQP6oGOvIWSq6Fn-42" target="hy3aHUQP6oGOvIWSq6Fn-16" edge="1">
          <mxGeometry width="50" height="50" relative="1" as="geometry">
            <mxPoint x="299.5" y="430" as="sourcePoint" />
            <mxPoint x="628" y="402" as="targetPoint" />
          </mxGeometry>
        </mxCell>
        <mxCell id="hy3aHUQP6oGOvIWSq6Fn-29" value="id_user" style="ellipse;whiteSpace=wrap;html=1;" parent="1" vertex="1">
          <mxGeometry x="375" y="516" width="98" height="48" as="geometry" />
        </mxCell>
        <mxCell id="hy3aHUQP6oGOvIWSq6Fn-32" value="" style="endArrow=classic;html=1;rounded=0;entryX=0.5;entryY=0;entryDx=0;entryDy=0;" parent="1" target="hy3aHUQP6oGOvIWSq6Fn-15" edge="1">
          <mxGeometry width="50" height="50" relative="1" as="geometry">
            <mxPoint x="533" y="775" as="sourcePoint" />
            <mxPoint x="475" y="817" as="targetPoint" />
          </mxGeometry>
        </mxCell>
        <mxCell id="hy3aHUQP6oGOvIWSq6Fn-33" value="" style="endArrow=classic;html=1;rounded=0;exitX=0;exitY=0.5;exitDx=0;exitDy=0;entryX=1;entryY=0.5;entryDx=0;entryDy=0;" parent="1" source="hy3aHUQP6oGOvIWSq6Fn-4" target="hy3aHUQP6oGOvIWSq6Fn-14" edge="1">
          <mxGeometry width="50" height="50" relative="1" as="geometry">
            <mxPoint x="608" y="772" as="sourcePoint" />
            <mxPoint x="658" y="722" as="targetPoint" />
          </mxGeometry>
        </mxCell>
        <mxCell id="hy3aHUQP6oGOvIWSq6Fn-34" value="" style="endArrow=classic;html=1;rounded=0;exitX=1;exitY=0.5;exitDx=0;exitDy=0;entryX=0;entryY=0.5;entryDx=0;entryDy=0;" parent="1" source="hy3aHUQP6oGOvIWSq6Fn-4" target="hy3aHUQP6oGOvIWSq6Fn-13" edge="1">
          <mxGeometry width="50" height="50" relative="1" as="geometry">
            <mxPoint x="567" y="532" as="sourcePoint" />
            <mxPoint x="617" y="482" as="targetPoint" />
          </mxGeometry>
        </mxCell>
        <mxCell id="hy3aHUQP6oGOvIWSq6Fn-35" value="id_bus" style="ellipse;whiteSpace=wrap;html=1;" parent="1" vertex="1">
          <mxGeometry x="190" y="533" width="98" height="48" as="geometry" />
        </mxCell>
        <mxCell id="hy3aHUQP6oGOvIWSq6Fn-36" value="" style="endArrow=classic;html=1;rounded=0;entryX=0.5;entryY=0;entryDx=0;entryDy=0;exitX=0.25;exitY=1;exitDx=0;exitDy=0;" parent="1" source="hy3aHUQP6oGOvIWSq6Fn-42" target="hy3aHUQP6oGOvIWSq6Fn-35" edge="1">
          <mxGeometry width="50" height="50" relative="1" as="geometry">
            <mxPoint x="270.75" y="472.0000000000002" as="sourcePoint" />
            <mxPoint x="330" y="455" as="targetPoint" />
          </mxGeometry>
        </mxCell>
        <mxCell id="hy3aHUQP6oGOvIWSq6Fn-37" value="" style="endArrow=classic;html=1;rounded=0;entryX=0;entryY=0;entryDx=0;entryDy=0;exitX=0.75;exitY=1;exitDx=0;exitDy=0;" parent="1" source="hy3aHUQP6oGOvIWSq6Fn-42" target="hy3aHUQP6oGOvIWSq6Fn-29" edge="1">
          <mxGeometry width="50" height="50" relative="1" as="geometry">
            <mxPoint x="328.25" y="472.0000000000002" as="sourcePoint" />
            <mxPoint x="490" y="510" as="targetPoint" />
          </mxGeometry>
        </mxCell>
        <mxCell id="hy3aHUQP6oGOvIWSq6Fn-39" value="" style="endArrow=classic;html=1;rounded=0;entryX=1;entryY=0.5;entryDx=0;entryDy=0;" parent="1" source="hy3aHUQP6oGOvIWSq6Fn-45" target="hy3aHUQP6oGOvIWSq6Fn-42" edge="1">
          <mxGeometry width="50" height="50" relative="1" as="geometry">
            <mxPoint x="555" y="393" as="sourcePoint" />
            <mxPoint x="357" y="458" as="targetPoint" />
            <Array as="points" />
          </mxGeometry>
        </mxCell>
        <mxCell id="hy3aHUQP6oGOvIWSq6Fn-47" value="M" style="edgeLabel;html=1;align=center;verticalAlign=middle;resizable=0;points=[];" parent="hy3aHUQP6oGOvIWSq6Fn-39" vertex="1" connectable="0">
          <mxGeometry x="-0.0445" y="-1" relative="1" as="geometry">
            <mxPoint as="offset" />
          </mxGeometry>
        </mxCell>
        <mxCell id="hy3aHUQP6oGOvIWSq6Fn-40" value="" style="endArrow=classic;html=1;rounded=0;entryX=0.5;entryY=0;entryDx=0;entryDy=0;exitX=1;exitY=0.5;exitDx=0;exitDy=0;" parent="1" source="hy3aHUQP6oGOvIWSq6Fn-49" target="hy3aHUQP6oGOvIWSq6Fn-4" edge="1">
          <mxGeometry width="50" height="50" relative="1" as="geometry">
            <mxPoint x="299.5" y="486" as="sourcePoint" />
            <mxPoint x="291" y="605" as="targetPoint" />
            <Array as="points">
              <mxPoint x="533" y="630" />
            </Array>
          </mxGeometry>
        </mxCell>
        <mxCell id="hy3aHUQP6oGOvIWSq6Fn-51" value="1" style="edgeLabel;html=1;align=center;verticalAlign=middle;resizable=0;points=[];" parent="hy3aHUQP6oGOvIWSq6Fn-40" vertex="1" connectable="0">
          <mxGeometry x="0.2017" relative="1" as="geometry">
            <mxPoint as="offset" />
          </mxGeometry>
        </mxCell>
        <mxCell id="hy3aHUQP6oGOvIWSq6Fn-42" value="Tiket" style="rounded=0;whiteSpace=wrap;html=1;" parent="1" vertex="1">
          <mxGeometry x="246" y="425" width="120" height="60" as="geometry" />
        </mxCell>
        <mxCell id="hy3aHUQP6oGOvIWSq6Fn-43" value="" style="endArrow=classic;html=1;rounded=0;entryX=1;entryY=0.5;entryDx=0;entryDy=0;" parent="1" source="hy3aHUQP6oGOvIWSq6Fn-1" target="hy3aHUQP6oGOvIWSq6Fn-45" edge="1">
          <mxGeometry width="50" height="50" relative="1" as="geometry">
            <mxPoint x="580" y="304" as="sourcePoint" />
            <mxPoint x="366" y="455" as="targetPoint" />
            <Array as="points">
              <mxPoint x="580" y="455" />
            </Array>
          </mxGeometry>
        </mxCell>
        <mxCell id="hy3aHUQP6oGOvIWSq6Fn-46" value="1" style="edgeLabel;html=1;align=center;verticalAlign=middle;resizable=0;points=[];" parent="hy3aHUQP6oGOvIWSq6Fn-43" vertex="1" connectable="0">
          <mxGeometry x="-0.3354" y="1" relative="1" as="geometry">
            <mxPoint as="offset" />
          </mxGeometry>
        </mxCell>
        <mxCell id="hy3aHUQP6oGOvIWSq6Fn-45" value="memesan" style="rhombus;whiteSpace=wrap;html=1;" parent="1" vertex="1">
          <mxGeometry x="428" y="435" width="118" height="40" as="geometry" />
        </mxCell>
        <mxCell id="hy3aHUQP6oGOvIWSq6Fn-48" value="" style="endArrow=classic;html=1;rounded=0;entryX=0;entryY=0.5;entryDx=0;entryDy=0;exitX=0.5;exitY=1;exitDx=0;exitDy=0;" parent="1" source="hy3aHUQP6oGOvIWSq6Fn-42" target="hy3aHUQP6oGOvIWSq6Fn-49" edge="1">
          <mxGeometry width="50" height="50" relative="1" as="geometry">
            <mxPoint x="306" y="485" as="sourcePoint" />
            <mxPoint x="533" y="715" as="targetPoint" />
            <Array as="points">
              <mxPoint x="306" y="630" />
            </Array>
          </mxGeometry>
        </mxCell>
        <mxCell id="hy3aHUQP6oGOvIWSq6Fn-50" value="M" style="edgeLabel;html=1;align=center;verticalAlign=middle;resizable=0;points=[];" parent="hy3aHUQP6oGOvIWSq6Fn-48" vertex="1" connectable="0">
          <mxGeometry x="-0.4602" y="-1" relative="1" as="geometry">
            <mxPoint as="offset" />
          </mxGeometry>
        </mxCell>
        <mxCell id="hy3aHUQP6oGOvIWSq6Fn-49" value="memiliki" style="rhombus;whiteSpace=wrap;html=1;" parent="1" vertex="1">
          <mxGeometry x="363" y="609" width="130" height="42" as="geometry" />
        </mxCell>
        <mxCell id="a_apXVDqE0RaCwlf4ZdV-1" value="nama_penumpang" style="ellipse;whiteSpace=wrap;html=1;" vertex="1" parent="1">
          <mxGeometry x="47" y="397" width="114" height="49" as="geometry" />
        </mxCell>
        <mxCell id="a_apXVDqE0RaCwlf4ZdV-2" value="kursi" style="ellipse;whiteSpace=wrap;html=1;" vertex="1" parent="1">
          <mxGeometry x="56" y="464" width="114" height="49" as="geometry" />
        </mxCell>
        <mxCell id="a_apXVDqE0RaCwlf4ZdV-3" value="email_penumpang" style="ellipse;whiteSpace=wrap;html=1;" vertex="1" parent="1">
          <mxGeometry x="42" y="544" width="114" height="49" as="geometry" />
        </mxCell>
        <mxCell id="a_apXVDqE0RaCwlf4ZdV-4" value="" style="endArrow=classic;html=1;rounded=0;entryX=1;entryY=0.5;entryDx=0;entryDy=0;exitX=0;exitY=0.5;exitDx=0;exitDy=0;" edge="1" parent="1" source="hy3aHUQP6oGOvIWSq6Fn-42" target="a_apXVDqE0RaCwlf4ZdV-1">
          <mxGeometry width="50" height="50" relative="1" as="geometry">
            <mxPoint x="168" y="484" as="sourcePoint" />
            <mxPoint x="218" y="434" as="targetPoint" />
          </mxGeometry>
        </mxCell>
        <mxCell id="a_apXVDqE0RaCwlf4ZdV-5" value="" style="endArrow=classic;html=1;rounded=0;entryX=1;entryY=0.5;entryDx=0;entryDy=0;exitX=0;exitY=0.5;exitDx=0;exitDy=0;" edge="1" parent="1" source="hy3aHUQP6oGOvIWSq6Fn-42" target="a_apXVDqE0RaCwlf4ZdV-2">
          <mxGeometry width="50" height="50" relative="1" as="geometry">
            <mxPoint x="76" y="524" as="sourcePoint" />
            <mxPoint x="126" y="474" as="targetPoint" />
          </mxGeometry>
        </mxCell>
        <mxCell id="a_apXVDqE0RaCwlf4ZdV-6" value="" style="endArrow=classic;html=1;rounded=0;entryX=1;entryY=0.5;entryDx=0;entryDy=0;exitX=0;exitY=0.5;exitDx=0;exitDy=0;" edge="1" parent="1" source="hy3aHUQP6oGOvIWSq6Fn-42" target="a_apXVDqE0RaCwlf4ZdV-3">
          <mxGeometry width="50" height="50" relative="1" as="geometry">
            <mxPoint x="89" y="507" as="sourcePoint" />
            <mxPoint x="139" y="457" as="targetPoint" />
          </mxGeometry>
        </mxCell>
        <mxCell id="a_apXVDqE0RaCwlf4ZdV-7" value="nama_bus" style="ellipse;whiteSpace=wrap;html=1;" vertex="1" parent="1">
          <mxGeometry x="347" y="779" width="98" height="48" as="geometry" />
        </mxCell>
        <mxCell id="a_apXVDqE0RaCwlf4ZdV-8" value="" style="endArrow=classic;html=1;rounded=0;entryX=1;entryY=0;entryDx=0;entryDy=0;exitX=0;exitY=0.5;exitDx=0;exitDy=0;" edge="1" parent="1" source="hy3aHUQP6oGOvIWSq6Fn-4" target="a_apXVDqE0RaCwlf4ZdV-7">
          <mxGeometry width="50" height="50" relative="1" as="geometry">
            <mxPoint x="97" y="787" as="sourcePoint" />
            <mxPoint x="147" y="737" as="targetPoint" />
          </mxGeometry>
        </mxCell>
      </root>
    </mxGraphModel>
  </diagram>
</mxfile>
